<svg width="170" height="61" viewBox="0 0 170 61" fill="none" xmlns="http://www.w3.org/2000/svg">
<path d="M53.389 43.3406V25.7609H59.9505C61.8818 25.7609 63.4912 26.157 64.7787 26.9493C66.0827 27.7252 67.0649 28.7816 67.7252 30.1186C68.3854 31.4392 68.7156 32.9083 68.7156 34.5259C68.7156 36.3087 68.3524 37.8603 67.6261 39.1808C66.8998 40.5014 65.8764 41.5248 64.5559 42.2511C63.2518 42.9774 61.7167 43.3406 59.9505 43.3406H53.389ZM64.5806 34.5259C64.5806 33.5025 64.399 32.6029 64.0359 31.8271C63.6727 31.0348 63.1445 30.424 62.4512 29.9948C61.758 29.5492 60.9244 29.3263 59.9505 29.3263H57.4497V39.7751H59.9505C60.9409 39.7751 61.7745 39.5523 62.4512 39.1066C63.1445 38.6444 63.6727 38.0171 64.0359 37.2248C64.399 36.416 64.5806 35.5163 64.5806 34.5259Z" fill="#0041BE"/>
<path d="M77.0058 43.5882C75.8998 43.5882 74.9177 43.4148 74.0593 43.0682C73.201 42.705 72.4664 42.2181 71.8556 41.6073C71.2614 40.9966 70.8075 40.2951 70.4938 39.5027C70.1802 38.6939 70.0234 37.8521 70.0234 36.9772C70.0234 35.7227 70.2958 34.5837 70.8405 33.5603C71.4017 32.5204 72.2023 31.6868 73.2422 31.0595C74.2821 30.4158 75.5367 30.0939 77.0058 30.0939C78.4749 30.0939 79.7211 30.4075 80.7445 31.0348C81.7845 31.662 82.5768 32.4874 83.1215 33.5108C83.6662 34.5177 83.9386 35.6154 83.9386 36.8039C83.9386 37.035 83.9221 37.2661 83.8891 37.4972C83.8726 37.7117 83.8561 37.9016 83.8396 38.0666H74.2326C74.2821 38.6444 74.439 39.1313 74.7031 39.5275C74.9837 39.9237 75.3386 40.229 75.7678 40.4436C76.1969 40.6417 76.6509 40.7407 77.1296 40.7407C77.7238 40.7407 78.2768 40.6004 78.7885 40.3198C79.3167 40.0392 79.6799 39.6595 79.8779 39.1808L83.2453 40.1217C82.9152 40.7985 82.4447 41.401 81.834 41.9292C81.2397 42.4409 80.53 42.8454 79.7046 43.1425C78.8958 43.4396 77.9962 43.5882 77.0058 43.5882ZM74.1336 35.6401H79.7789C79.7129 35.0954 79.5561 34.625 79.3085 34.2288C79.0609 33.8162 78.7307 33.5025 78.318 33.2879C77.9054 33.0568 77.4514 32.9413 76.9562 32.9413C76.4445 32.9413 75.9823 33.0568 75.5697 33.2879C75.1735 33.5025 74.8516 33.8162 74.604 34.2288C74.3564 34.625 74.1996 35.0954 74.1336 35.6401Z" fill="#0041BE"/>
<path d="M88.7146 43.3406L84.1092 30.3415H88.1946L91.042 39.7751L93.8895 30.3415H97.6035L93.0229 43.3406H88.7146Z" fill="#0041BE"/>
<path d="M99.8507 43.3406V34.4021H98.1917V31.4062H99.8507V30.3415C99.8507 29.252 100.032 28.3111 100.395 27.5188C100.775 26.7265 101.303 26.1157 101.98 25.6866C102.673 25.2409 103.474 25.0181 104.382 25.0181C104.943 25.0181 105.504 25.0841 106.065 25.2161C106.627 25.3482 107.196 25.538 107.774 25.7856L107.056 28.7568C106.808 28.6413 106.519 28.5505 106.189 28.4845C105.859 28.4019 105.554 28.3607 105.273 28.3607C104.794 28.3607 104.431 28.5175 104.184 28.8311C103.936 29.1282 103.812 29.5822 103.812 30.1929V31.4062H106.833V34.4021H103.812V43.3406H99.8507Z" fill="#0041BE"/>
<path d="M116.781 33.7336C115.823 33.7336 114.957 33.8904 114.181 34.2041C113.405 34.5012 112.844 34.9469 112.497 35.5411V43.3406H108.536V30.3415H112.175V32.9661C112.621 32.0912 113.199 31.4062 113.909 30.911C114.618 30.4158 115.361 30.1599 116.137 30.1434C116.319 30.1434 116.451 30.1434 116.533 30.1434C116.632 30.1434 116.715 30.1517 116.781 30.1682V33.7336Z" fill="#0041BE"/>
<path d="M124.567 43.5882C123.462 43.5882 122.479 43.4148 121.621 43.0682C120.763 42.705 120.028 42.2181 119.417 41.6073C118.823 40.9966 118.369 40.2951 118.056 39.5027C117.742 38.6939 117.585 37.8521 117.585 36.9772C117.585 35.7227 117.857 34.5837 118.402 33.5603C118.963 32.5204 119.764 31.6868 120.804 31.0595C121.844 30.4158 123.098 30.0939 124.567 30.0939C126.037 30.0939 127.283 30.4075 128.306 31.0348C129.346 31.662 130.138 32.4874 130.683 33.5108C131.228 34.5177 131.5 35.6154 131.5 36.8039C131.5 37.035 131.484 37.2661 131.451 37.4972C131.434 37.7117 131.418 37.9016 131.401 38.0666H121.794C121.844 38.6444 122.001 39.1313 122.265 39.5275C122.545 39.9237 122.9 40.229 123.329 40.4436C123.759 40.6417 124.213 40.7407 124.691 40.7407C125.286 40.7407 125.838 40.6004 126.35 40.3198C126.878 40.0392 127.242 39.6595 127.44 39.1808L130.807 40.1217C130.477 40.7985 130.006 41.401 129.396 41.9292C128.801 42.4409 128.092 42.8454 127.266 43.1425C126.457 43.4396 125.558 43.5882 124.567 43.5882ZM121.695 35.6401H127.341C127.275 35.0954 127.118 34.625 126.87 34.2288C126.623 33.8162 126.292 33.5025 125.88 33.2879C125.467 33.0568 125.013 32.9413 124.518 32.9413C124.006 32.9413 123.544 33.0568 123.131 33.2879C122.735 33.5025 122.413 33.8162 122.166 34.2288C121.918 34.625 121.761 35.0954 121.695 35.6401Z" fill="#0041BE"/>
<path d="M139.511 43.5882C138.405 43.5882 137.422 43.4148 136.564 43.0682C135.706 42.705 134.971 42.2181 134.36 41.6073C133.766 40.9966 133.312 40.2951 132.999 39.5027C132.685 38.6939 132.528 37.8521 132.528 36.9772C132.528 35.7227 132.801 34.5837 133.345 33.5603C133.907 32.5204 134.707 31.6868 135.747 31.0595C136.787 30.4158 138.041 30.0939 139.511 30.0939C140.98 30.0939 142.226 30.4075 143.249 31.0348C144.289 31.662 145.082 32.4874 145.626 33.5108C146.171 34.5177 146.443 35.6154 146.443 36.8039C146.443 37.035 146.427 37.2661 146.394 37.4972C146.377 37.7117 146.361 37.9016 146.344 38.0666H136.737C136.787 38.6444 136.944 39.1313 137.208 39.5275C137.489 39.9237 137.843 40.229 138.273 40.4436C138.702 40.6417 139.156 40.7407 139.634 40.7407C140.229 40.7407 140.782 40.6004 141.293 40.3198C141.822 40.0392 142.185 39.6595 142.383 39.1808L145.75 40.1217C145.42 40.7985 144.95 41.401 144.339 41.9292C143.745 42.4409 143.035 42.8454 142.209 43.1425C141.401 43.4396 140.501 43.5882 139.511 43.5882ZM136.638 35.6401H142.284C142.218 35.0954 142.061 34.625 141.813 34.2288C141.566 33.8162 141.236 33.5025 140.823 33.2879C140.41 33.0568 139.956 32.9413 139.461 32.9413C138.949 32.9413 138.487 33.0568 138.075 33.2879C137.678 33.5025 137.356 33.8162 137.109 34.2288C136.861 34.625 136.704 35.0954 136.638 35.6401Z" fill="#0041BE"/>
<path d="M148.189 25.2657H152.151V38.7104C152.151 39.2551 152.25 39.643 152.448 39.8741C152.646 40.1052 152.927 40.2208 153.29 40.2208C153.538 40.2208 153.785 40.1878 154.033 40.1217C154.297 40.0392 154.528 39.9484 154.726 39.8494L155.246 42.8206C154.751 43.0517 154.181 43.2333 153.538 43.3653C152.894 43.4974 152.291 43.5634 151.73 43.5634C150.608 43.5634 149.733 43.2663 149.106 42.672C148.495 42.0613 148.189 41.2029 148.189 40.097V25.2657Z" fill="#0041BE"/>
<path d="M155.716 39.4532C155.716 38.5949 155.955 37.8438 156.434 37.2C156.912 36.5563 157.573 36.0528 158.414 35.6897C159.256 35.31 160.222 35.1202 161.311 35.1202C161.84 35.1202 162.359 35.1697 162.871 35.2687C163.383 35.3513 163.829 35.4751 164.208 35.6401V35.0707C164.208 34.3609 163.994 33.8162 163.564 33.4365C163.135 33.0568 162.483 32.867 161.608 32.867C160.882 32.867 160.197 32.9908 159.553 33.2384C158.926 33.486 158.258 33.8409 157.548 34.3031L156.359 31.7776C157.218 31.2163 158.109 30.7954 159.033 30.5148C159.974 30.2342 160.965 30.0939 162.005 30.0939C163.952 30.0939 165.463 30.5643 166.536 31.5052C167.625 32.4296 168.17 33.7749 168.17 35.5411V38.9332C168.17 39.3294 168.228 39.61 168.343 39.7751C168.475 39.9237 168.698 40.0144 169.012 40.0475V43.3406C168.682 43.4066 168.368 43.4561 168.071 43.4891C167.79 43.5221 167.543 43.5386 167.328 43.5386C166.585 43.5386 166.016 43.3901 165.62 43.093C165.24 42.7958 165.001 42.3914 164.902 41.8797L164.827 41.3102C164.25 42.053 163.556 42.6225 162.747 43.0187C161.955 43.3983 161.121 43.5882 160.247 43.5882C159.388 43.5882 158.612 43.4066 157.919 43.0434C157.242 42.6803 156.706 42.1851 156.31 41.5578C155.914 40.9306 155.716 40.229 155.716 39.4532ZM163.589 39.9484C163.771 39.7999 163.919 39.6348 164.035 39.4532C164.15 39.2716 164.208 39.0983 164.208 38.9332V37.7695C163.878 37.6375 163.507 37.5384 163.094 37.4724C162.698 37.3899 162.326 37.3486 161.98 37.3486C161.254 37.3486 160.651 37.5137 160.172 37.8438C159.694 38.1574 159.454 38.5784 159.454 39.1066C159.454 39.4037 159.537 39.6761 159.702 39.9237C159.867 40.1713 160.09 40.3693 160.37 40.5179C160.668 40.6665 161.014 40.7407 161.41 40.7407C161.807 40.7407 162.203 40.6665 162.599 40.5179C162.995 40.3693 163.325 40.1795 163.589 39.9484Z" fill="#0041BE"/>
<path d="M5.67419 20.8269L25.483 9.22057L47.328 20.8269L25.483 32.0463L5.67419 20.8269Z" fill="#0041BE"/>
<path d="M3.42819 46.2318L3.42819 22.7612L24.4961 34.1096L24.4961 58.9987L3.42819 46.2318Z" fill="#0041BE"/>
<path d="M26.6409 58.9987L26.6409 33.9807L47.7902 22.8902L47.7902 46.7476L26.6409 58.9987Z" fill="#0041BE"/>
</svg>
